<svg xmlns="http://www.w3.org/2000/svg" xml:space="preserve" version="1.1" viewBox="0 0 2877 142">
  <style>
    .shp{fill-rule:evenodd;clip-rule:evenodd}
    .active{fill:#f4364c}
    .inactive{fill:#0078d4}
    .txt{fill:#fff;font-family:Aptos,SegoeUI,ArialMT,Arial,Helvetica,sans-serif;font-size:55px}
  </style>
  <path class="shp inactive" d="M-3.6-.1h452l71 71-71 71h-452l71-71-71-71z"/>
  <text class="txt" transform="translate(148.152 86.114)">Overview</text>
  <path class="shp inactive" d="M469-.1h452l71 71-71 71H469l71-71-71-71z"/>
  <text class="txt" transform="translate(614.59 86.114)">Concepts</text>
  <path class="shp inactive" d="M937.8-.1h452l71 71-71 71h-452l71-71-71-71z"/>
  <text class="txt" transform="translate(1107.185 86.114)">Prepare</text>
  <path class="shp inactive" d="M1410.6-.1h452l71 71-71 71h-452l71-71-71-71z"/>
  <text class="txt" transform="translate(1604.43 86.114)">RBAC</text>
  <path class="shp inactive" d="M1880.9-.1h452l71 71-71 71h-452l71-71-71-71z"/>
  <text class="txt" transform="translate(2042.142 86.114)">Network</text>
  <path class="shp active" d="M2349.5-.1h452l71 71-71 71h-452l71-71-71-71z"/>
  <text class="txt" transform="translate(2511.633 86.113)">Solution</text>
</svg>